<svg viewBox="0 0 1040 2188" xmlns="http://www.w3.org/2000/svg" font-family="Helvetica, Arial, sans-serif">
<rect x="0" y="0" width="1040" height="2188" fill="#ffffff"/>
<text x="520" y="34" font-size="22" font-weight="700" fill="#1e1c38" text-anchor="middle">4. Entity Relationship Diagram — QuestLearn (22 models)</text>
<defs>
  <marker id="rel" markerWidth="8" markerHeight="8" refX="6" refY="2.5" orient="auto"><path d="M0,0 L0,5 L7,2.5 z" fill="#5c5878"/></marker>
</defs>
<line x1="540" y1="186" x2="560" y2="186" stroke="#9ca3af" stroke-width="1.2" marker-end="url(#rel)"/>
<line x1="540" y1="186" x2="812" y2="186" stroke="#9ca3af" stroke-width="1.2" marker-end="url(#rel)"/>
<path d="M424,266 C424,281 172,273 172,288" fill="none" stroke="#9ca3af" stroke-width="1.2" marker-end="url(#rel)"/>
<line x1="288" y1="605" x2="308" y2="605" stroke="#9ca3af" stroke-width="1.2" marker-end="url(#rel)"/>
<line x1="288" y1="842" x2="308" y2="842" stroke="#9ca3af" stroke-width="1.2" marker-end="url(#rel)"/>
<line x1="792" y1="857" x2="812" y2="857" stroke="#9ca3af" stroke-width="1.2" marker-end="url(#rel)"/>
<line x1="288" y1="842" x2="812" y2="842" stroke="#9ca3af" stroke-width="1.2" marker-end="url(#rel)"/>
<line x1="540" y1="887" x2="812" y2="887" stroke="#9ca3af" stroke-width="1.2" marker-end="url(#rel)"/>
<line x1="288" y1="1183.5" x2="308" y2="1183.5" stroke="#9ca3af" stroke-width="1.2" marker-end="url(#rel)"/>
<path d="M172,907 C172,922 424,1096 424,1111" fill="none" stroke="#9ca3af" stroke-width="1.2" marker-end="url(#rel)"/>
<line x1="288" y1="1183.5" x2="560" y2="1183.5" stroke="#9ca3af" stroke-width="1.2" marker-end="url(#rel)"/>
<path d="M172,685 C172,700 172,1348 172,1363" fill="none" stroke="#9ca3af" stroke-width="1.2" marker-end="url(#rel)"/>
<path d="M676,937 C676,952 172,1348 172,1363" fill="none" stroke="#9ca3af" stroke-width="1.2" marker-end="url(#rel)"/>
<line x1="288" y1="1443" x2="308" y2="1443" stroke="#9ca3af" stroke-width="1.2" marker-end="url(#rel)"/>
<line x1="540" y1="1450.5" x2="560" y2="1450.5" stroke="#9ca3af" stroke-width="1.2" marker-end="url(#rel)"/>
<path d="M928,922 C928,937 676,1348 676,1363" fill="none" stroke="#9ca3af" stroke-width="1.2" marker-end="url(#rel)"/>
<path d="M676,1538 C676,1553 676,1096 676,1111" fill="none" stroke="#9ca3af" stroke-width="1.2" marker-end="url(#rel)"/>
<path d="M424,1538 C424,1553 172,1615 172,1630" fill="none" stroke="#9ca3af" stroke-width="1.2" marker-end="url(#rel)"/>
<line x1="288" y1="1924.5" x2="308" y2="1924.5" stroke="#9ca3af" stroke-width="1.2" marker-end="url(#rel)"/>
<line x1="288" y1="1924.5" x2="560" y2="1924.5" stroke="#9ca3af" stroke-width="1.2" marker-end="url(#rel)"/>
<path d="M676,937 C676,952 424,1837 424,1852" fill="none" stroke="#9ca3af" stroke-width="1.2" marker-end="url(#rel)"/>
<path d="M172,1256 C172,1271 424,1837 424,1852" fill="none" stroke="#9ca3af" stroke-width="1.2" marker-end="url(#rel)"/>
<g transform="translate(40, 60)">
<rect x="0" y="0" width="960" height="389" rx="10" fill="#eff6ff" stroke="#1e40af" stroke-width="2"/>
<text x="16" y="22" font-size="15" font-weight="700" fill="#1e40af" font-family="Helvetica,Arial,sans-serif">1. IDENTITY &amp; AUTH</text>
<g>
<rect x="16" y="46" width="232" height="100" rx="6" fill="#ffffff" stroke="#1e40af" stroke-width="1.5"/>
<path d="M16,52 a6,6 0 0 1 6,-6 h220 a6,6 0 0 1 6,6 v18 h-232 z" fill="#1e40af"/>
<text x="132" y="62" font-size="11.5" font-weight="700" fill="#ffffff" text-anchor="middle" font-family="Helvetica,Arial,sans-serif">TENANT</text>
<text x="24" y="88" font-size="10.5" fill="#1e1c38" font-family="Helvetica,Arial,sans-serif">id <tspan font-size="8.5" fill="#1e40af" font-weight="700">PK</tspan></text>
<text x="24" y="103" font-size="10.5" fill="#1e1c38" font-family="Helvetica,Arial,sans-serif">name</text>
<text x="24" y="118" font-size="10.5" fill="#1e1c38" font-family="Helvetica,Arial,sans-serif">plan</text>
<text x="24" y="133" font-size="10.5" fill="#1e1c38" font-family="Helvetica,Arial,sans-serif">createdAt</text>
</g>
<g>
<rect x="268" y="46" width="232" height="160" rx="6" fill="#ffffff" stroke="#1e40af" stroke-width="1.5"/>
<path d="M268,52 a6,6 0 0 1 6,-6 h220 a6,6 0 0 1 6,6 v18 h-232 z" fill="#1e40af"/>
<text x="384" y="62" font-size="11.5" font-weight="700" fill="#ffffff" text-anchor="middle" font-family="Helvetica,Arial,sans-serif">USER</text>
<text x="276" y="88" font-size="10.5" fill="#1e1c38" font-family="Helvetica,Arial,sans-serif">id <tspan font-size="8.5" fill="#1e40af" font-weight="700">PK</tspan></text>
<rect x="270" y="92" width="228" height="15" fill="#fef9c3"/>
<text x="276" y="103" font-size="10.5" fill="#1e1c38" font-family="Helvetica,Arial,sans-serif">tenantId <tspan font-size="8.5" fill="#1e40af" font-weight="700">FK</tspan></text>
<text x="276" y="118" font-size="10.5" fill="#1e1c38" font-family="Helvetica,Arial,sans-serif">email <tspan font-size="8.5" fill="#1e40af" font-weight="700">UK</tspan></text>
<text x="276" y="133" font-size="10.5" fill="#1e1c38" font-family="Helvetica,Arial,sans-serif">name</text>
<text x="276" y="148" font-size="10.5" fill="#1e1c38" font-family="Helvetica,Arial,sans-serif">passwordHash</text>
<text x="276" y="163" font-size="10.5" fill="#1e1c38" font-family="Helvetica,Arial,sans-serif">role</text>
<text x="276" y="178" font-size="10.5" fill="#1e1c38" font-family="Helvetica,Arial,sans-serif">emailVerifiedAt <tspan font-size="8.5" fill="#1e40af" font-weight="700">?</tspan></text>
<text x="276" y="193" font-size="10.5" fill="#1e1c38" font-family="Helvetica,Arial,sans-serif">createdAt</text>
</g>
<g>
<rect x="520" y="46" width="232" height="145" rx="6" fill="#ffffff" stroke="#1e40af" stroke-width="1.5"/>
<path d="M520,52 a6,6 0 0 1 6,-6 h220 a6,6 0 0 1 6,6 v18 h-232 z" fill="#1e40af"/>
<text x="636" y="62" font-size="11.5" font-weight="700" fill="#ffffff" text-anchor="middle" font-family="Helvetica,Arial,sans-serif">SESSION</text>
<text x="528" y="88" font-size="10.5" fill="#1e1c38" font-family="Helvetica,Arial,sans-serif">id <tspan font-size="8.5" fill="#1e40af" font-weight="700">PK</tspan></text>
<rect x="522" y="92" width="228" height="15" fill="#fef9c3"/>
<text x="528" y="103" font-size="10.5" fill="#1e1c38" font-family="Helvetica,Arial,sans-serif">tenantId <tspan font-size="8.5" fill="#1e40af" font-weight="700">FK</tspan></text>
<text x="528" y="118" font-size="10.5" fill="#1e1c38" font-family="Helvetica,Arial,sans-serif">userId <tspan font-size="8.5" fill="#1e40af" font-weight="700">FK</tspan></text>
<text x="528" y="133" font-size="10.5" fill="#1e1c38" font-family="Helvetica,Arial,sans-serif">refreshTokenHash <tspan font-size="8.5" fill="#1e40af" font-weight="700">UK</tspan></text>
<text x="528" y="148" font-size="10.5" fill="#1e1c38" font-family="Helvetica,Arial,sans-serif">expiresAt</text>
<text x="528" y="163" font-size="10.5" fill="#1e1c38" font-family="Helvetica,Arial,sans-serif">revokedAt <tspan font-size="8.5" fill="#1e40af" font-weight="700">?</tspan></text>
<text x="528" y="178" font-size="10.5" fill="#1e1c38" font-family="Helvetica,Arial,sans-serif">createdAt</text>
</g>
<g>
<rect x="772" y="46" width="232" height="145" rx="6" fill="#ffffff" stroke="#1e40af" stroke-width="1.5"/>
<path d="M772,52 a6,6 0 0 1 6,-6 h220 a6,6 0 0 1 6,6 v18 h-232 z" fill="#1e40af"/>
<text x="888" y="62" font-size="11.5" font-weight="700" fill="#ffffff" text-anchor="middle" font-family="Helvetica,Arial,sans-serif">VERIFICATION_TOKEN</text>
<text x="780" y="88" font-size="10.5" fill="#1e1c38" font-family="Helvetica,Arial,sans-serif">id <tspan font-size="8.5" fill="#1e40af" font-weight="700">PK</tspan></text>
<rect x="774" y="92" width="228" height="15" fill="#fef9c3"/>
<text x="780" y="103" font-size="10.5" fill="#1e1c38" font-family="Helvetica,Arial,sans-serif">tenantId <tspan font-size="8.5" fill="#1e40af" font-weight="700">FK</tspan></text>
<text x="780" y="118" font-size="10.5" fill="#1e1c38" font-family="Helvetica,Arial,sans-serif">userId <tspan font-size="8.5" fill="#1e40af" font-weight="700">FK</tspan></text>
<text x="780" y="133" font-size="10.5" fill="#1e1c38" font-family="Helvetica,Arial,sans-serif">tokenHash <tspan font-size="8.5" fill="#1e40af" font-weight="700">UK</tspan></text>
<text x="780" y="148" font-size="10.5" fill="#1e1c38" font-family="Helvetica,Arial,sans-serif">expiresAt</text>
<text x="780" y="163" font-size="10.5" fill="#1e1c38" font-family="Helvetica,Arial,sans-serif">usedAt <tspan font-size="8.5" fill="#1e40af" font-weight="700">?</tspan></text>
<text x="780" y="178" font-size="10.5" fill="#1e1c38" font-family="Helvetica,Arial,sans-serif">createdAt</text>
</g>
<g>
<rect x="16" y="228" width="232" height="145" rx="6" fill="#ffffff" stroke="#1e40af" stroke-width="1.5"/>
<path d="M16,234 a6,6 0 0 1 6,-6 h220 a6,6 0 0 1 6,6 v18 h-232 z" fill="#1e40af"/>
<text x="132" y="244" font-size="11.5" font-weight="700" fill="#ffffff" text-anchor="middle" font-family="Helvetica,Arial,sans-serif">PASSWORD_RESET_TOKEN</text>
<text x="24" y="270" font-size="10.5" fill="#1e1c38" font-family="Helvetica,Arial,sans-serif">id <tspan font-size="8.5" fill="#1e40af" font-weight="700">PK</tspan></text>
<rect x="18" y="274" width="228" height="15" fill="#fef9c3"/>
<text x="24" y="285" font-size="10.5" fill="#1e1c38" font-family="Helvetica,Arial,sans-serif">tenantId <tspan font-size="8.5" fill="#1e40af" font-weight="700">FK</tspan></text>
<text x="24" y="300" font-size="10.5" fill="#1e1c38" font-family="Helvetica,Arial,sans-serif">userId <tspan font-size="8.5" fill="#1e40af" font-weight="700">FK</tspan></text>
<text x="24" y="315" font-size="10.5" fill="#1e1c38" font-family="Helvetica,Arial,sans-serif">tokenHash <tspan font-size="8.5" fill="#1e40af" font-weight="700">UK</tspan></text>
<text x="24" y="330" font-size="10.5" fill="#1e1c38" font-family="Helvetica,Arial,sans-serif">expiresAt</text>
<text x="24" y="345" font-size="10.5" fill="#1e1c38" font-family="Helvetica,Arial,sans-serif">usedAt <tspan font-size="8.5" fill="#1e40af" font-weight="700">?</tspan></text>
<text x="24" y="360" font-size="10.5" fill="#1e1c38" font-family="Helvetica,Arial,sans-serif">createdAt</text>
</g>
</g>
<g transform="translate(40, 479)">
<rect x="0" y="0" width="960" height="222" rx="10" fill="#eafbf8" stroke="#0d9c8c" stroke-width="2"/>
<text x="16" y="22" font-size="15" font-weight="700" fill="#0d9c8c" font-family="Helvetica,Arial,sans-serif">2. CLASSES &amp; ROSTER</text>
<g>
<rect x="16" y="46" width="232" height="160" rx="6" fill="#ffffff" stroke="#0d9c8c" stroke-width="1.5"/>
<path d="M16,52 a6,6 0 0 1 6,-6 h220 a6,6 0 0 1 6,6 v18 h-232 z" fill="#0d9c8c"/>
<text x="132" y="62" font-size="11.5" font-weight="700" fill="#ffffff" text-anchor="middle" font-family="Helvetica,Arial,sans-serif">CLASS</text>
<text x="24" y="88" font-size="10.5" fill="#1e1c38" font-family="Helvetica,Arial,sans-serif">id <tspan font-size="8.5" fill="#0d9c8c" font-weight="700">PK</tspan></text>
<rect x="18" y="92" width="228" height="15" fill="#fef9c3"/>
<text x="24" y="103" font-size="10.5" fill="#1e1c38" font-family="Helvetica,Arial,sans-serif">tenantId <tspan font-size="8.5" fill="#0d9c8c" font-weight="700">FK</tspan></text>
<text x="24" y="118" font-size="10.5" fill="#1e1c38" font-family="Helvetica,Arial,sans-serif">teacherId <tspan font-size="8.5" fill="#0d9c8c" font-weight="700">FK</tspan></text>
<text x="24" y="133" font-size="10.5" fill="#1e1c38" font-family="Helvetica,Arial,sans-serif">name</text>
<text x="24" y="148" font-size="10.5" fill="#1e1c38" font-family="Helvetica,Arial,sans-serif">joinCode <tspan font-size="8.5" fill="#0d9c8c" font-weight="700">UK</tspan></text>
<text x="24" y="163" font-size="10.5" fill="#1e1c38" font-family="Helvetica,Arial,sans-serif">joinCodeExpiresAt</text>
<text x="24" y="178" font-size="10.5" fill="#1e1c38" font-family="Helvetica,Arial,sans-serif">createdAt</text>
<text x="24" y="193" font-size="10.5" fill="#1e1c38" font-family="Helvetica,Arial,sans-serif">archivedAt <tspan font-size="8.5" fill="#0d9c8c" font-weight="700">?</tspan></text>
</g>
<g>
<rect x="268" y="46" width="232" height="160" rx="6" fill="#ffffff" stroke="#0d9c8c" stroke-width="1.5"/>
<path d="M268,52 a6,6 0 0 1 6,-6 h220 a6,6 0 0 1 6,6 v18 h-232 z" fill="#0d9c8c"/>
<text x="384" y="62" font-size="11.5" font-weight="700" fill="#ffffff" text-anchor="middle" font-family="Helvetica,Arial,sans-serif">ROSTER_ENTRY</text>
<text x="276" y="88" font-size="10.5" fill="#1e1c38" font-family="Helvetica,Arial,sans-serif">id <tspan font-size="8.5" fill="#0d9c8c" font-weight="700">PK</tspan></text>
<rect x="270" y="92" width="228" height="15" fill="#fef9c3"/>
<text x="276" y="103" font-size="10.5" fill="#1e1c38" font-family="Helvetica,Arial,sans-serif">tenantId <tspan font-size="8.5" fill="#0d9c8c" font-weight="700">FK</tspan></text>
<text x="276" y="118" font-size="10.5" fill="#1e1c38" font-family="Helvetica,Arial,sans-serif">classId <tspan font-size="8.5" fill="#0d9c8c" font-weight="700">FK</tspan></text>
<text x="276" y="133" font-size="10.5" fill="#1e1c38" font-family="Helvetica,Arial,sans-serif">userId <tspan font-size="8.5" fill="#0d9c8c" font-weight="700">FK ?</tspan></text>
<text x="276" y="148" font-size="10.5" fill="#1e1c38" font-family="Helvetica,Arial,sans-serif">name</text>
<text x="276" y="163" font-size="10.5" fill="#1e1c38" font-family="Helvetica,Arial,sans-serif">email <tspan font-size="8.5" fill="#0d9c8c" font-weight="700">?</tspan></text>
<text x="276" y="178" font-size="10.5" fill="#1e1c38" font-family="Helvetica,Arial,sans-serif">addedAt</text>
<text x="276" y="193" font-size="10.5" fill="#1e1c38" font-family="Helvetica,Arial,sans-serif">removedAt <tspan font-size="8.5" fill="#0d9c8c" font-weight="700">?</tspan></text>
</g>
</g>
<g transform="translate(40, 731)">
<rect x="0" y="0" width="960" height="304" rx="10" fill="#ebfbef" stroke="#16a34a" stroke-width="2"/>
<text x="16" y="22" font-size="15" font-weight="700" fill="#16a34a" font-family="Helvetica,Arial,sans-serif">3. CONTENT AUTHORING</text>
<g>
<rect x="16" y="46" width="232" height="130" rx="6" fill="#ffffff" stroke="#16a34a" stroke-width="1.5"/>
<path d="M16,52 a6,6 0 0 1 6,-6 h220 a6,6 0 0 1 6,6 v18 h-232 z" fill="#16a34a"/>
<text x="132" y="62" font-size="11.5" font-weight="700" fill="#ffffff" text-anchor="middle" font-family="Helvetica,Arial,sans-serif">QUESTION</text>
<text x="24" y="88" font-size="10.5" fill="#1e1c38" font-family="Helvetica,Arial,sans-serif">id <tspan font-size="8.5" fill="#16a34a" font-weight="700">PK</tspan></text>
<rect x="18" y="92" width="228" height="15" fill="#fef9c3"/>
<text x="24" y="103" font-size="10.5" fill="#1e1c38" font-family="Helvetica,Arial,sans-serif">tenantId <tspan font-size="8.5" fill="#16a34a" font-weight="700">FK</tspan></text>
<text x="24" y="118" font-size="10.5" fill="#1e1c38" font-family="Helvetica,Arial,sans-serif">teacherId <tspan font-size="8.5" fill="#16a34a" font-weight="700">FK</tspan></text>
<text x="24" y="133" font-size="10.5" fill="#1e1c38" font-family="Helvetica,Arial,sans-serif">currentVersionId <tspan font-size="8.5" fill="#16a34a" font-weight="700">FK ?</tspan></text>
<text x="24" y="148" font-size="10.5" fill="#1e1c38" font-family="Helvetica,Arial,sans-serif">createdAt</text>
<text x="24" y="163" font-size="10.5" fill="#1e1c38" font-family="Helvetica,Arial,sans-serif">archivedAt <tspan font-size="8.5" fill="#16a34a" font-weight="700">?</tspan></text>
</g>
<g>
<rect x="268" y="46" width="232" height="220" rx="6" fill="#ffffff" stroke="#16a34a" stroke-width="1.5"/>
<path d="M268,52 a6,6 0 0 1 6,-6 h220 a6,6 0 0 1 6,6 v18 h-232 z" fill="#16a34a"/>
<text x="384" y="62" font-size="11.5" font-weight="700" fill="#ffffff" text-anchor="middle" font-family="Helvetica,Arial,sans-serif">QUESTION_VERSION</text>
<text x="276" y="88" font-size="10.5" fill="#1e1c38" font-family="Helvetica,Arial,sans-serif">id <tspan font-size="8.5" fill="#16a34a" font-weight="700">PK</tspan></text>
<text x="276" y="103" font-size="10.5" fill="#1e1c38" font-family="Helvetica,Arial,sans-serif">questionId <tspan font-size="8.5" fill="#16a34a" font-weight="700">FK</tspan></text>
<rect x="270" y="107" width="228" height="15" fill="#fef9c3"/>
<text x="276" y="118" font-size="10.5" fill="#1e1c38" font-family="Helvetica,Arial,sans-serif">tenantId <tspan font-size="8.5" fill="#16a34a" font-weight="700">FK</tspan></text>
<text x="276" y="133" font-size="10.5" fill="#1e1c38" font-family="Helvetica,Arial,sans-serif">versionNumber <tspan font-size="8.5" fill="#16a34a" font-weight="700">UK*</tspan></text>
<text x="276" y="148" font-size="10.5" fill="#1e1c38" font-family="Helvetica,Arial,sans-serif">type</text>
<text x="276" y="163" font-size="10.5" fill="#1e1c38" font-family="Helvetica,Arial,sans-serif">prompt</text>
<text x="276" y="178" font-size="10.5" fill="#1e1c38" font-family="Helvetica,Arial,sans-serif">points</text>
<text x="276" y="193" font-size="10.5" fill="#1e1c38" font-family="Helvetica,Arial,sans-serif">hint <tspan font-size="8.5" fill="#16a34a" font-weight="700">?</tspan></text>
<text x="276" y="208" font-size="10.5" fill="#1e1c38" font-family="Helvetica,Arial,sans-serif">explanation <tspan font-size="8.5" fill="#16a34a" font-weight="700">?</tspan></text>
<text x="276" y="223" font-size="10.5" fill="#1e1c38" font-family="Helvetica,Arial,sans-serif">options <tspan font-size="8.5" fill="#16a34a" font-weight="700">?</tspan></text>
<text x="276" y="238" font-size="10.5" fill="#1e1c38" font-family="Helvetica,Arial,sans-serif">correctAnswer</text>
<text x="276" y="253" font-size="10.5" fill="#1e1c38" font-family="Helvetica,Arial,sans-serif">createdAt</text>
</g>
<g>
<rect x="520" y="46" width="232" height="160" rx="6" fill="#ffffff" stroke="#16a34a" stroke-width="1.5"/>
<path d="M520,52 a6,6 0 0 1 6,-6 h220 a6,6 0 0 1 6,6 v18 h-232 z" fill="#16a34a"/>
<text x="636" y="62" font-size="11.5" font-weight="700" fill="#ffffff" text-anchor="middle" font-family="Helvetica,Arial,sans-serif">ACTIVITY</text>
<text x="528" y="88" font-size="10.5" fill="#1e1c38" font-family="Helvetica,Arial,sans-serif">id <tspan font-size="8.5" fill="#16a34a" font-weight="700">PK</tspan></text>
<rect x="522" y="92" width="228" height="15" fill="#fef9c3"/>
<text x="528" y="103" font-size="10.5" fill="#1e1c38" font-family="Helvetica,Arial,sans-serif">tenantId <tspan font-size="8.5" fill="#16a34a" font-weight="700">FK</tspan></text>
<text x="528" y="118" font-size="10.5" fill="#1e1c38" font-family="Helvetica,Arial,sans-serif">teacherId <tspan font-size="8.5" fill="#16a34a" font-weight="700">FK</tspan></text>
<text x="528" y="133" font-size="10.5" fill="#1e1c38" font-family="Helvetica,Arial,sans-serif">title</text>
<text x="528" y="148" font-size="10.5" fill="#1e1c38" font-family="Helvetica,Arial,sans-serif">status</text>
<text x="528" y="163" font-size="10.5" fill="#1e1c38" font-family="Helvetica,Arial,sans-serif">publishedAt <tspan font-size="8.5" fill="#16a34a" font-weight="700">?</tspan></text>
<text x="528" y="178" font-size="10.5" fill="#1e1c38" font-family="Helvetica,Arial,sans-serif">createdAt</text>
<text x="528" y="193" font-size="10.5" fill="#1e1c38" font-family="Helvetica,Arial,sans-serif">archivedAt <tspan font-size="8.5" fill="#16a34a" font-weight="700">?</tspan></text>
</g>
<g>
<rect x="772" y="46" width="232" height="145" rx="6" fill="#ffffff" stroke="#16a34a" stroke-width="1.5"/>
<path d="M772,52 a6,6 0 0 1 6,-6 h220 a6,6 0 0 1 6,6 v18 h-232 z" fill="#16a34a"/>
<text x="888" y="62" font-size="11.5" font-weight="700" fill="#ffffff" text-anchor="middle" font-family="Helvetica,Arial,sans-serif">ACTIVITY_QUESTION</text>
<text x="780" y="88" font-size="10.5" fill="#1e1c38" font-family="Helvetica,Arial,sans-serif">id <tspan font-size="8.5" fill="#16a34a" font-weight="700">PK</tspan></text>
<rect x="774" y="92" width="228" height="15" fill="#fef9c3"/>
<text x="780" y="103" font-size="10.5" fill="#1e1c38" font-family="Helvetica,Arial,sans-serif">tenantId <tspan font-size="8.5" fill="#16a34a" font-weight="700">FK</tspan></text>
<text x="780" y="118" font-size="10.5" fill="#1e1c38" font-family="Helvetica,Arial,sans-serif">activityId <tspan font-size="8.5" fill="#16a34a" font-weight="700">FK</tspan></text>
<text x="780" y="133" font-size="10.5" fill="#1e1c38" font-family="Helvetica,Arial,sans-serif">questionId <tspan font-size="8.5" fill="#16a34a" font-weight="700">FK</tspan></text>
<text x="780" y="148" font-size="10.5" fill="#1e1c38" font-family="Helvetica,Arial,sans-serif">pinnedVersionId <tspan font-size="8.5" fill="#16a34a" font-weight="700">FK ?</tspan></text>
<text x="780" y="163" font-size="10.5" fill="#1e1c38" font-family="Helvetica,Arial,sans-serif">order</text>
<text x="780" y="178" font-size="10.5" fill="#1e1c38" font-family="Helvetica,Arial,sans-serif">createdAt</text>
</g>
</g>
<g transform="translate(40, 1065)">
<rect x="0" y="0" width="960" height="222" rx="10" fill="#f1effe" stroke="#4f3fe0" stroke-width="2"/>
<text x="16" y="22" font-size="15" font-weight="700" fill="#4f3fe0" font-family="Helvetica,Arial,sans-serif">4. CONCEPTS &amp; MASTERY</text>
<g>
<rect x="16" y="46" width="232" height="145" rx="6" fill="#ffffff" stroke="#4f3fe0" stroke-width="1.5"/>
<path d="M16,52 a6,6 0 0 1 6,-6 h220 a6,6 0 0 1 6,6 v18 h-232 z" fill="#4f3fe0"/>
<text x="132" y="62" font-size="11.5" font-weight="700" fill="#ffffff" text-anchor="middle" font-family="Helvetica,Arial,sans-serif">CONCEPT</text>
<text x="24" y="88" font-size="10.5" fill="#1e1c38" font-family="Helvetica,Arial,sans-serif">id <tspan font-size="8.5" fill="#4f3fe0" font-weight="700">PK</tspan></text>
<rect x="18" y="92" width="228" height="15" fill="#fef9c3"/>
<text x="24" y="103" font-size="10.5" fill="#1e1c38" font-family="Helvetica,Arial,sans-serif">tenantId <tspan font-size="8.5" fill="#4f3fe0" font-weight="700">FK</tspan></text>
<text x="24" y="118" font-size="10.5" fill="#1e1c38" font-family="Helvetica,Arial,sans-serif">teacherId <tspan font-size="8.5" fill="#4f3fe0" font-weight="700">FK</tspan></text>
<text x="24" y="133" font-size="10.5" fill="#1e1c38" font-family="Helvetica,Arial,sans-serif">name</text>
<text x="24" y="148" font-size="10.5" fill="#1e1c38" font-family="Helvetica,Arial,sans-serif">description <tspan font-size="8.5" fill="#4f3fe0" font-weight="700">?</tspan></text>
<text x="24" y="163" font-size="10.5" fill="#1e1c38" font-family="Helvetica,Arial,sans-serif">createdAt</text>
<text x="24" y="178" font-size="10.5" fill="#1e1c38" font-family="Helvetica,Arial,sans-serif">archivedAt <tspan font-size="8.5" fill="#4f3fe0" font-weight="700">?</tspan></text>
</g>
<g>
<rect x="268" y="46" width="232" height="115" rx="6" fill="#ffffff" stroke="#4f3fe0" stroke-width="1.5"/>
<path d="M268,52 a6,6 0 0 1 6,-6 h220 a6,6 0 0 1 6,6 v18 h-232 z" fill="#4f3fe0"/>
<text x="384" y="62" font-size="11.5" font-weight="700" fill="#ffffff" text-anchor="middle" font-family="Helvetica,Arial,sans-serif">QUESTION_CONCEPT</text>
<text x="276" y="88" font-size="10.5" fill="#1e1c38" font-family="Helvetica,Arial,sans-serif">id <tspan font-size="8.5" fill="#4f3fe0" font-weight="700">PK</tspan></text>
<rect x="270" y="92" width="228" height="15" fill="#fef9c3"/>
<text x="276" y="103" font-size="10.5" fill="#1e1c38" font-family="Helvetica,Arial,sans-serif">tenantId <tspan font-size="8.5" fill="#4f3fe0" font-weight="700">FK</tspan></text>
<text x="276" y="118" font-size="10.5" fill="#1e1c38" font-family="Helvetica,Arial,sans-serif">questionId <tspan font-size="8.5" fill="#4f3fe0" font-weight="700">UK*</tspan></text>
<text x="276" y="133" font-size="10.5" fill="#1e1c38" font-family="Helvetica,Arial,sans-serif">conceptId <tspan font-size="8.5" fill="#4f3fe0" font-weight="700">UK*</tspan></text>
<text x="276" y="148" font-size="10.5" fill="#1e1c38" font-family="Helvetica,Arial,sans-serif">createdAt</text>
</g>
<g>
<rect x="520" y="46" width="232" height="160" rx="6" fill="#ffffff" stroke="#4f3fe0" stroke-width="1.5"/>
<path d="M520,52 a6,6 0 0 1 6,-6 h220 a6,6 0 0 1 6,6 v18 h-232 z" fill="#4f3fe0"/>
<text x="636" y="62" font-size="11.5" font-weight="700" fill="#ffffff" text-anchor="middle" font-family="Helvetica,Arial,sans-serif">MASTERY_EVIDENCE</text>
<text x="528" y="88" font-size="10.5" fill="#1e1c38" font-family="Helvetica,Arial,sans-serif">id <tspan font-size="8.5" fill="#4f3fe0" font-weight="700">PK</tspan></text>
<rect x="522" y="92" width="228" height="15" fill="#fef9c3"/>
<text x="528" y="103" font-size="10.5" fill="#1e1c38" font-family="Helvetica,Arial,sans-serif">tenantId <tspan font-size="8.5" fill="#4f3fe0" font-weight="700">FK</tspan></text>
<text x="528" y="118" font-size="10.5" fill="#1e1c38" font-family="Helvetica,Arial,sans-serif">learnerId <tspan font-size="8.5" fill="#4f3fe0" font-weight="700">FK</tspan></text>
<text x="528" y="133" font-size="10.5" fill="#1e1c38" font-family="Helvetica,Arial,sans-serif">conceptId <tspan font-size="8.5" fill="#4f3fe0" font-weight="700">FK</tspan></text>
<text x="528" y="148" font-size="10.5" fill="#1e1c38" font-family="Helvetica,Arial,sans-serif">attemptResponseId <tspan font-size="8.5" fill="#4f3fe0" font-weight="700">UK*</tspan></text>
<text x="528" y="163" font-size="10.5" fill="#1e1c38" font-family="Helvetica,Arial,sans-serif">responseScore</text>
<text x="528" y="178" font-size="10.5" fill="#1e1c38" font-family="Helvetica,Arial,sans-serif">hintViewed</text>
<text x="528" y="193" font-size="10.5" fill="#1e1c38" font-family="Helvetica,Arial,sans-serif">recordedAt</text>
</g>
</g>
<g transform="translate(40, 1317)">
<rect x="0" y="0" width="960" height="237" rx="10" fill="#fff6e8" stroke="#d97f06" stroke-width="2"/>
<text x="16" y="22" font-size="15" font-weight="700" fill="#d97f06" font-family="Helvetica,Arial,sans-serif">5. ASSESSMENT</text>
<g>
<rect x="16" y="46" width="232" height="160" rx="6" fill="#ffffff" stroke="#d97f06" stroke-width="1.5"/>
<path d="M16,52 a6,6 0 0 1 6,-6 h220 a6,6 0 0 1 6,6 v18 h-232 z" fill="#d97f06"/>
<text x="132" y="62" font-size="11.5" font-weight="700" fill="#ffffff" text-anchor="middle" font-family="Helvetica,Arial,sans-serif">ASSIGNMENT</text>
<text x="24" y="88" font-size="10.5" fill="#1e1c38" font-family="Helvetica,Arial,sans-serif">id <tspan font-size="8.5" fill="#d97f06" font-weight="700">PK</tspan></text>
<rect x="18" y="92" width="228" height="15" fill="#fef9c3"/>
<text x="24" y="103" font-size="10.5" fill="#1e1c38" font-family="Helvetica,Arial,sans-serif">tenantId <tspan font-size="8.5" fill="#d97f06" font-weight="700">FK</tspan></text>
<text x="24" y="118" font-size="10.5" fill="#1e1c38" font-family="Helvetica,Arial,sans-serif">teacherId <tspan font-size="8.5" fill="#d97f06" font-weight="700">FK</tspan></text>
<text x="24" y="133" font-size="10.5" fill="#1e1c38" font-family="Helvetica,Arial,sans-serif">classId <tspan font-size="8.5" fill="#d97f06" font-weight="700">FK</tspan></text>
<text x="24" y="148" font-size="10.5" fill="#1e1c38" font-family="Helvetica,Arial,sans-serif">activityId <tspan font-size="8.5" fill="#d97f06" font-weight="700">FK*</tspan></text>
<text x="24" y="163" font-size="10.5" fill="#1e1c38" font-family="Helvetica,Arial,sans-serif">dueAt</text>
<text x="24" y="178" font-size="10.5" fill="#1e1c38" font-family="Helvetica,Arial,sans-serif">createdAt</text>
<text x="24" y="193" font-size="10.5" fill="#1e1c38" font-family="Helvetica,Arial,sans-serif">archivedAt <tspan font-size="8.5" fill="#d97f06" font-weight="700">?</tspan></text>
</g>
<g>
<rect x="268" y="46" width="232" height="175" rx="6" fill="#ffffff" stroke="#d97f06" stroke-width="1.5"/>
<path d="M268,52 a6,6 0 0 1 6,-6 h220 a6,6 0 0 1 6,6 v18 h-232 z" fill="#d97f06"/>
<text x="384" y="62" font-size="11.5" font-weight="700" fill="#ffffff" text-anchor="middle" font-family="Helvetica,Arial,sans-serif">ATTEMPT</text>
<text x="276" y="88" font-size="10.5" fill="#1e1c38" font-family="Helvetica,Arial,sans-serif">id <tspan font-size="8.5" fill="#d97f06" font-weight="700">PK</tspan></text>
<rect x="270" y="92" width="228" height="15" fill="#fef9c3"/>
<text x="276" y="103" font-size="10.5" fill="#1e1c38" font-family="Helvetica,Arial,sans-serif">tenantId <tspan font-size="8.5" fill="#d97f06" font-weight="700">FK</tspan></text>
<text x="276" y="118" font-size="10.5" fill="#1e1c38" font-family="Helvetica,Arial,sans-serif">assignmentId <tspan font-size="8.5" fill="#d97f06" font-weight="700">UK*</tspan></text>
<text x="276" y="133" font-size="10.5" fill="#1e1c38" font-family="Helvetica,Arial,sans-serif">learnerId <tspan font-size="8.5" fill="#d97f06" font-weight="700">UK*</tspan></text>
<text x="276" y="148" font-size="10.5" fill="#1e1c38" font-family="Helvetica,Arial,sans-serif">status</text>
<text x="276" y="163" font-size="10.5" fill="#1e1c38" font-family="Helvetica,Arial,sans-serif">startedAt</text>
<text x="276" y="178" font-size="10.5" fill="#1e1c38" font-family="Helvetica,Arial,sans-serif">submittedAt <tspan font-size="8.5" fill="#d97f06" font-weight="700">?</tspan></text>
<text x="276" y="193" font-size="10.5" fill="#1e1c38" font-family="Helvetica,Arial,sans-serif">score <tspan font-size="8.5" fill="#d97f06" font-weight="700">?</tspan></text>
<text x="276" y="208" font-size="10.5" fill="#1e1c38" font-family="Helvetica,Arial,sans-serif">createdAt</text>
</g>
<g>
<rect x="520" y="46" width="232" height="175" rx="6" fill="#ffffff" stroke="#d97f06" stroke-width="1.5"/>
<path d="M520,52 a6,6 0 0 1 6,-6 h220 a6,6 0 0 1 6,6 v18 h-232 z" fill="#d97f06"/>
<text x="636" y="62" font-size="11.5" font-weight="700" fill="#ffffff" text-anchor="middle" font-family="Helvetica,Arial,sans-serif">ATTEMPT_RESPONSE</text>
<text x="528" y="88" font-size="10.5" fill="#1e1c38" font-family="Helvetica,Arial,sans-serif">id <tspan font-size="8.5" fill="#d97f06" font-weight="700">PK</tspan></text>
<rect x="522" y="92" width="228" height="15" fill="#fef9c3"/>
<text x="528" y="103" font-size="10.5" fill="#1e1c38" font-family="Helvetica,Arial,sans-serif">tenantId <tspan font-size="8.5" fill="#d97f06" font-weight="700">FK</tspan></text>
<text x="528" y="118" font-size="10.5" fill="#1e1c38" font-family="Helvetica,Arial,sans-serif">attemptId <tspan font-size="8.5" fill="#d97f06" font-weight="700">UK*</tspan></text>
<text x="528" y="133" font-size="10.5" fill="#1e1c38" font-family="Helvetica,Arial,sans-serif">activityQuestionId <tspan font-size="8.5" fill="#d97f06" font-weight="700">UK*</tspan></text>
<text x="528" y="148" font-size="10.5" fill="#1e1c38" font-family="Helvetica,Arial,sans-serif">responseValue</text>
<text x="528" y="163" font-size="10.5" fill="#1e1c38" font-family="Helvetica,Arial,sans-serif">isCorrect <tspan font-size="8.5" fill="#d97f06" font-weight="700">?</tspan></text>
<text x="528" y="178" font-size="10.5" fill="#1e1c38" font-family="Helvetica,Arial,sans-serif">pointsAwarded <tspan font-size="8.5" fill="#d97f06" font-weight="700">?</tspan></text>
<text x="528" y="193" font-size="10.5" fill="#1e1c38" font-family="Helvetica,Arial,sans-serif">hintViewed</text>
<text x="528" y="208" font-size="10.5" fill="#1e1c38" font-family="Helvetica,Arial,sans-serif">createdAt</text>
</g>
</g>
<g transform="translate(40, 1584)">
<rect x="0" y="0" width="960" height="192" rx="10" fill="#fdecec" stroke="#dc2626" stroke-width="2"/>
<text x="16" y="22" font-size="15" font-weight="700" fill="#dc2626" font-family="Helvetica,Arial,sans-serif">6. GAMIFICATION</text>
<g>
<rect x="16" y="46" width="232" height="130" rx="6" fill="#ffffff" stroke="#dc2626" stroke-width="1.5"/>
<path d="M16,52 a6,6 0 0 1 6,-6 h220 a6,6 0 0 1 6,6 v18 h-232 z" fill="#dc2626"/>
<text x="132" y="62" font-size="11.5" font-weight="700" fill="#ffffff" text-anchor="middle" font-family="Helvetica,Arial,sans-serif">XP_TRANSACTION</text>
<text x="24" y="88" font-size="10.5" fill="#1e1c38" font-family="Helvetica,Arial,sans-serif">id <tspan font-size="8.5" fill="#dc2626" font-weight="700">PK</tspan></text>
<rect x="18" y="92" width="228" height="15" fill="#fef9c3"/>
<text x="24" y="103" font-size="10.5" fill="#1e1c38" font-family="Helvetica,Arial,sans-serif">tenantId <tspan font-size="8.5" fill="#dc2626" font-weight="700">FK</tspan></text>
<text x="24" y="118" font-size="10.5" fill="#1e1c38" font-family="Helvetica,Arial,sans-serif">learnerId <tspan font-size="8.5" fill="#dc2626" font-weight="700">FK</tspan></text>
<text x="24" y="133" font-size="10.5" fill="#1e1c38" font-family="Helvetica,Arial,sans-serif">attemptId <tspan font-size="8.5" fill="#dc2626" font-weight="700">FK,UK*</tspan></text>
<text x="24" y="148" font-size="10.5" fill="#1e1c38" font-family="Helvetica,Arial,sans-serif">amount</text>
<text x="24" y="163" font-size="10.5" fill="#1e1c38" font-family="Helvetica,Arial,sans-serif">createdAt</text>
</g>
<g>
<rect x="268" y="46" width="232" height="115" rx="6" fill="#ffffff" stroke="#dc2626" stroke-width="1.5"/>
<path d="M268,52 a6,6 0 0 1 6,-6 h220 a6,6 0 0 1 6,6 v18 h-232 z" fill="#dc2626"/>
<text x="384" y="62" font-size="11.5" font-weight="700" fill="#ffffff" text-anchor="middle" font-family="Helvetica,Arial,sans-serif">LEARNER_BADGE</text>
<text x="276" y="88" font-size="10.5" fill="#1e1c38" font-family="Helvetica,Arial,sans-serif">id <tspan font-size="8.5" fill="#dc2626" font-weight="700">PK</tspan></text>
<rect x="270" y="92" width="228" height="15" fill="#fef9c3"/>
<text x="276" y="103" font-size="10.5" fill="#1e1c38" font-family="Helvetica,Arial,sans-serif">tenantId <tspan font-size="8.5" fill="#dc2626" font-weight="700">FK</tspan></text>
<text x="276" y="118" font-size="10.5" fill="#1e1c38" font-family="Helvetica,Arial,sans-serif">learnerId <tspan font-size="8.5" fill="#dc2626" font-weight="700">UK*</tspan></text>
<text x="276" y="133" font-size="10.5" fill="#1e1c38" font-family="Helvetica,Arial,sans-serif">badgeType <tspan font-size="8.5" fill="#dc2626" font-weight="700">UK*</tspan></text>
<text x="276" y="148" font-size="10.5" fill="#1e1c38" font-family="Helvetica,Arial,sans-serif">awardedAt</text>
</g>
</g>
<g transform="translate(40, 1806)">
<rect x="0" y="0" width="960" height="222" rx="10" fill="#f5eefe" stroke="#a855f7" stroke-width="2"/>
<text x="16" y="22" font-size="15" font-weight="700" fill="#a855f7" font-family="Helvetica,Arial,sans-serif">7. QUESTS</text>
<g>
<rect x="16" y="46" width="232" height="145" rx="6" fill="#ffffff" stroke="#a855f7" stroke-width="1.5"/>
<path d="M16,52 a6,6 0 0 1 6,-6 h220 a6,6 0 0 1 6,6 v18 h-232 z" fill="#a855f7"/>
<text x="132" y="62" font-size="11.5" font-weight="700" fill="#ffffff" text-anchor="middle" font-family="Helvetica,Arial,sans-serif">QUEST</text>
<text x="24" y="88" font-size="10.5" fill="#1e1c38" font-family="Helvetica,Arial,sans-serif">id <tspan font-size="8.5" fill="#a855f7" font-weight="700">PK</tspan></text>
<rect x="18" y="92" width="228" height="15" fill="#fef9c3"/>
<text x="24" y="103" font-size="10.5" fill="#1e1c38" font-family="Helvetica,Arial,sans-serif">tenantId <tspan font-size="8.5" fill="#a855f7" font-weight="700">FK</tspan></text>
<text x="24" y="118" font-size="10.5" fill="#1e1c38" font-family="Helvetica,Arial,sans-serif">teacherId <tspan font-size="8.5" fill="#a855f7" font-weight="700">FK</tspan></text>
<text x="24" y="133" font-size="10.5" fill="#1e1c38" font-family="Helvetica,Arial,sans-serif">title</text>
<text x="24" y="148" font-size="10.5" fill="#1e1c38" font-family="Helvetica,Arial,sans-serif">description <tspan font-size="8.5" fill="#a855f7" font-weight="700">?</tspan></text>
<text x="24" y="163" font-size="10.5" fill="#1e1c38" font-family="Helvetica,Arial,sans-serif">createdAt</text>
<text x="24" y="178" font-size="10.5" fill="#1e1c38" font-family="Helvetica,Arial,sans-serif">archivedAt <tspan font-size="8.5" fill="#a855f7" font-weight="700">?</tspan></text>
</g>
<g>
<rect x="268" y="46" width="232" height="160" rx="6" fill="#ffffff" stroke="#a855f7" stroke-width="1.5"/>
<path d="M268,52 a6,6 0 0 1 6,-6 h220 a6,6 0 0 1 6,6 v18 h-232 z" fill="#a855f7"/>
<text x="384" y="62" font-size="11.5" font-weight="700" fill="#ffffff" text-anchor="middle" font-family="Helvetica,Arial,sans-serif">QUEST_STEP</text>
<text x="276" y="88" font-size="10.5" fill="#1e1c38" font-family="Helvetica,Arial,sans-serif">id <tspan font-size="8.5" fill="#a855f7" font-weight="700">PK</tspan></text>
<rect x="270" y="92" width="228" height="15" fill="#fef9c3"/>
<text x="276" y="103" font-size="10.5" fill="#1e1c38" font-family="Helvetica,Arial,sans-serif">tenantId <tspan font-size="8.5" fill="#a855f7" font-weight="700">FK</tspan></text>
<text x="276" y="118" font-size="10.5" fill="#1e1c38" font-family="Helvetica,Arial,sans-serif">questId <tspan font-size="8.5" fill="#a855f7" font-weight="700">UK*</tspan></text>
<text x="276" y="133" font-size="10.5" fill="#1e1c38" font-family="Helvetica,Arial,sans-serif">order <tspan font-size="8.5" fill="#a855f7" font-weight="700">UK*</tspan></text>
<text x="276" y="148" font-size="10.5" fill="#1e1c38" font-family="Helvetica,Arial,sans-serif">activityId <tspan font-size="8.5" fill="#a855f7" font-weight="700">FK ?</tspan></text>
<text x="276" y="163" font-size="10.5" fill="#1e1c38" font-family="Helvetica,Arial,sans-serif">requiredConceptId <tspan font-size="8.5" fill="#a855f7" font-weight="700">FK ?</tspan></text>
<text x="276" y="178" font-size="10.5" fill="#1e1c38" font-family="Helvetica,Arial,sans-serif">requiredMasteryState <tspan font-size="8.5" fill="#a855f7" font-weight="700">?</tspan></text>
<text x="276" y="193" font-size="10.5" fill="#1e1c38" font-family="Helvetica,Arial,sans-serif">createdAt</text>
</g>
<g>
<rect x="520" y="46" width="232" height="130" rx="6" fill="#ffffff" stroke="#a855f7" stroke-width="1.5"/>
<path d="M520,52 a6,6 0 0 1 6,-6 h220 a6,6 0 0 1 6,6 v18 h-232 z" fill="#a855f7"/>
<text x="636" y="62" font-size="11.5" font-weight="700" fill="#ffffff" text-anchor="middle" font-family="Helvetica,Arial,sans-serif">QUEST_COMPLETION</text>
<text x="528" y="88" font-size="10.5" fill="#1e1c38" font-family="Helvetica,Arial,sans-serif">id <tspan font-size="8.5" fill="#a855f7" font-weight="700">PK</tspan></text>
<rect x="522" y="92" width="228" height="15" fill="#fef9c3"/>
<text x="528" y="103" font-size="10.5" fill="#1e1c38" font-family="Helvetica,Arial,sans-serif">tenantId <tspan font-size="8.5" fill="#a855f7" font-weight="700">FK</tspan></text>
<text x="528" y="118" font-size="10.5" fill="#1e1c38" font-family="Helvetica,Arial,sans-serif">questId <tspan font-size="8.5" fill="#a855f7" font-weight="700">UK*</tspan></text>
<text x="528" y="133" font-size="10.5" fill="#1e1c38" font-family="Helvetica,Arial,sans-serif">learnerId <tspan font-size="8.5" fill="#a855f7" font-weight="700">UK*</tspan></text>
<text x="528" y="148" font-size="10.5" fill="#1e1c38" font-family="Helvetica,Arial,sans-serif">xpAwarded</text>
<text x="528" y="163" font-size="10.5" fill="#1e1c38" font-family="Helvetica,Arial,sans-serif">awardedAt</text>
</g>
</g>

<g transform="translate(40, 2088)">
  <rect x="0" y="0" width="960" height="70" rx="8" fill="#ffffff" stroke="#454263" stroke-width="1.4"/>
  <rect x="16" y="14" width="16" height="15" fill="#fef9c3"/>
  <text x="38" y="26" font-size="12" fill="#1e1c38" font-family="Helvetica,Arial,sans-serif">tenantId — required on every applicable table (multi-tenant scoping, Master Spec A4)</text>
  <text x="16" y="48" font-size="12" fill="#1e1c38" font-family="Helvetica,Arial,sans-serif">PK = primary key   FK = foreign key   UK = unique constraint   UK* = composite unique (part of the idempotency mechanism — see 10-idempotency-concurrency.svg)   ? = nullable</text>
  <text x="16" y="66" font-size="11" fill="#5c5878" font-family="Helvetica,Arial,sans-serif">Lines show the real structural relationships, not every FK — tenantId's fan-out from Tenant to all 21 other tables is omitted here for readability (it's the yellow highlight instead).</text>
</g>
</svg>